<svg width="24" height="24" viewBox="0 0 24 24" fill="none" xmlns="http://www.w3.org/2000/svg">
<path fill-rule="evenodd" clip-rule="evenodd" d="M7.78178 3.24175C7.59779 3.08353 7.36255 2.9976 7.1199 2.99999L7.11006 3.00008V3.00004H4.11067C3.97195 3.00021 3.83479 3.02925 3.70789 3.0853C3.5809 3.14139 3.46698 3.22331 3.37338 3.32585C3.27978 3.42838 3.20856 3.54928 3.16425 3.68085C3.12064 3.81033 3.10403 3.94736 3.11543 4.08347C3.42817 7.01503 4.42636 9.83191 6.02934 12.3063L6.0341 12.3137L6.03407 12.3137C7.49067 14.606 9.43411 16.5494 11.7264 18.006L11.7342 18.011L11.7342 18.011C14.197 19.6082 16.9997 20.606 19.9176 20.9248C20.0538 20.936 20.1909 20.9192 20.3204 20.8754C20.4523 20.8308 20.5735 20.7592 20.6761 20.665C20.7787 20.5709 20.8605 20.4564 20.9163 20.3288C20.9721 20.2012 21.0006 20.0633 21.0001 19.9241L21.0001 19.92V16.92C21.0001 16.9118 21.0002 16.9035 21.0004 16.8952C21.0064 16.65 20.9222 16.4111 20.7636 16.224C20.6058 16.0378 20.3854 15.9157 20.1439 15.8807C19.111 15.7441 18.0967 15.4912 17.1205 15.1269L17.1182 15.1261C16.9392 15.0588 16.7447 15.0443 16.5578 15.0841C16.3715 15.1239 16.2005 15.2159 16.0648 15.3495L14.7972 16.6171C14.4788 16.9355 13.9871 17.0018 13.5958 16.7793C10.9357 15.2668 8.73329 13.0643 7.22076 10.4043C6.99825 10.013 7.06464 9.52124 7.38295 9.20293L8.65059 7.93529C8.78416 7.7996 8.87624 7.62858 8.91596 7.44234C8.95583 7.25535 8.94128 7.06086 8.874 6.8819L8.87316 6.87964C8.50888 5.90343 8.25602 4.88922 8.11936 3.85627C8.08469 3.61744 7.96481 3.39916 7.78178 3.24175ZM7.10563 1.00004C7.83167 0.994199 8.53527 1.25188 9.08586 1.72538C9.63781 2.20006 9.99833 2.85925 10.1002 3.58008L10.1015 3.58927L10.1015 3.58928C10.2182 4.47421 10.4346 5.34309 10.7466 6.17939C10.948 6.71594 10.9915 7.29897 10.872 7.8595C10.7523 8.42044 10.4744 8.93534 10.0711 9.34318L10.0672 9.34715L10.0672 9.34714L9.35007 10.0642C10.5259 11.9089 12.0912 13.4742 13.9359 14.65L14.6529 13.9329L14.6569 13.929C15.0647 13.5257 15.5796 13.2478 16.1406 13.1281C16.7011 13.0086 17.2842 13.0521 17.8207 13.2535C18.657 13.5655 19.5259 13.7819 20.4108 13.8986L20.4198 13.8998L20.4197 13.8998C21.1484 14.0026 21.8138 14.3696 22.2895 14.9311C22.7623 15.4891 23.0149 16.2004 23.0001 16.9312V19.918" fill="#69B99D"/>
</svg>
